<svg version="1.0" xmlns="http://www.w3.org/2000/svg"
 width="200.000000pt" height="200.000000pt" viewBox="0 0 200.000000 200.000000"
 preserveAspectRatio="xMidYMid meet">
<g transform="translate(0.000000,200.000000) scale(0.100000,-0.100000)"
fill="#000000" stroke="none">
<path d="M700 1845 c-403 -55 -640 -203 -592 -368 12 -40 252 -1191 252 -1207
0 -11 96 -48 180 -70 171 -43 299 -60 465 -60 311 0 469 35 653 145 9 6 233
1180 233 1222 0 65 -16 97 -76 152 -94 86 -287 154 -528 186 -143 18 -452 18
-587 0z m660 -80 c208 -37 409 -125 444 -194 28 -54 21 -90 -28 -136 -162
-156 -666 -234 -1096 -170 -318 48 -527 159 -506 269 19 99 240 200 526 240
144 20 527 15 660 -9z m340 -914 c-55 -278 -101 -509 -103 -515 -9 -23 -137
-76 -232 -96 -146 -31 -452 -39 -595 -15 -118 19 -245 49 -305 71 l-41 15
-105 512 c-58 282 -104 514 -103 515 1 2 22 -7 46 -21 213 -124 674 -176 1058
-121 186 27 380 89 455 147 11 8 21 15 22 14 1 -2 -43 -229 -97 -506z"/>
</g>
</svg>